<?xml version="1.0" standalone="no"?>
<!DOCTYPE svg PUBLIC "-//W3C//DTD SVG 20010904//EN"
 "http://www.w3.org/TR/2001/REC-SVG-20010904/DTD/svg10.dtd">
<svg version="1.0" xmlns="http://www.w3.org/2000/svg"
 width="1080.000000pt" height="1080.000000pt" viewBox="0 0 1080.000000 1080.000000"
 preserveAspectRatio="xMidYMid meet">
<metadata>
Created by potrace 1.14, written by Peter Selinger 2001-2017
</metadata>
<g transform="translate(0.000000,1080.000000) scale(0.100000,-0.100000)"
fill="#000000" stroke="none">
<path d="M5185 10380 c-286 -61 -519 -231 -666 -485 -57 -99 -95 -202 -118
-325 -9 -49 -8 -306 2 -355 13 -72 52 -183 89 -260 100 -207 284 -381 504
-476 120 -53 226 -73 379 -74 160 0 204 6 318 41 403 126 681 497 693 924 8
292 -87 531 -292 737 -194 195 -431 292 -709 290 -72 0 -152 -7 -200 -17z"/>
<path d="M2045 9385 c-33 -7 -71 -16 -84 -19 -39 -9 -166 -72 -218 -107 -74
-51 -184 -168 -231 -248 -36 -61 -80 -171 -99 -246 -3 -11 -7 -74 -9 -140 -5
-190 42 -347 150 -499 107 -150 293 -270 480 -311 95 -21 304 -13 391 15 221
70 392 215 491 415 24 50 47 99 49 110 3 11 11 49 19 85 19 82 14 280 -8 365
-25 93 -99 233 -163 309 -110 131 -256 222 -423 265 -87 22 -261 25 -345 6z"/>
<path d="M8410 9379 c-105 -26 -243 -97 -324 -166 -64 -53 -164 -166 -165
-186 -1 -5 -9 -21 -20 -35 -27 -40 -69 -151 -86 -229 -18 -86 -13 -284 9 -368
34 -126 109 -256 210 -363 85 -91 262 -187 400 -217 81 -18 292 -13 371 9 220
60 411 218 511 421 61 124 76 188 79 335 4 143 -8 210 -56 325 -94 227 -272
387 -514 465 -100 32 -308 37 -415 9z"/>
<path d="M5840 8163 c-183 -81 -502 -102 -745 -49 -53 12 -139 37 -155 46 -10
6 -23 10 -29 10 -8 0 -11 -158 -11 -519 l0 -519 -57 -18 c-315 -98 -633 -319
-851 -590 -119 -149 -235 -359 -292 -528 l-32 -96 -528 0 -529 0 29 -85 c16
-47 31 -101 35 -121 3 -20 7 -39 9 -43 18 -29 26 -296 13 -418 -8 -72 -58
-267 -78 -305 -6 -11 -8 -22 -5 -25 3 -3 242 -6 530 -6 l525 0 31 -91 c106
-310 286 -566 569 -810 128 -110 365 -239 564 -307 l67 -23 0 -522 0 -522 73
25 c72 24 156 45 232 58 76 14 307 12 397 -2 50 -8 137 -29 194 -48 l104 -33
1 37 c0 20 1 255 1 523 l1 487 81 27 c84 27 328 141 334 156 2 4 8 8 13 8 24
0 209 139 308 232 208 196 394 489 475 749 l17 57 497 0 c273 0 509 1 524 1
l28 1 -20 53 c-99 269 -102 603 -6 875 l25 72 -524 0 -524 0 -15 48 c-40 135
-126 313 -214 446 -225 340 -568 600 -959 725 l-41 14 0 506 c0 278 -1 514 -1
524 -1 20 -14 21 -61 0z"/>
<path d="M3463 7576 c-101 -38 -180 -110 -229 -212 -22 -48 -28 -75 -30 -145
-2 -51 2 -103 10 -130 31 -103 110 -199 200 -243 209 -102 445 -24 547 182 28
58 33 79 36 153 4 136 -33 225 -129 314 -75 70 -146 97 -258 101 -68 2 -97 -2
-147 -20z"/>
<path d="M7074 7581 c-171 -61 -272 -203 -272 -382 0 -179 111 -329 281 -381
260 -79 515 110 515 382 0 173 -101 317 -261 375 -78 29 -191 31 -263 6z"/>
<path d="M1187 6380 c-266 -56 -483 -203 -635 -430 -51 -76 -80 -136 -115
-242 -23 -69 -29 -96 -43 -188 -9 -64 -2 -278 10 -298 2 -4 7 -27 11 -51 12
-81 106 -296 153 -347 9 -10 29 -35 43 -54 34 -45 121 -129 179 -172 119 -89
237 -142 395 -178 112 -25 338 -21 447 8 340 92 597 331 706 657 41 121 51
197 47 345 -9 359 -199 672 -516 849 -60 34 -197 87 -251 97 -18 3 -44 8 -58
11 -14 3 -83 6 -155 8 -99 3 -151 -1 -218 -15z"/>
<path d="M9279 6395 c-2 -1 -23 -5 -47 -9 -199 -27 -386 -126 -547 -291 -130
-132 -205 -265 -257 -453 -31 -110 -31 -371 0 -484 106 -389 402 -668 788
-742 159 -30 366 -13 524 42 270 94 507 331 602 602 44 125 57 217 54 370 -3
121 -8 160 -30 235 -113 380 -403 646 -786 719 -64 12 -291 21 -301 11z"/>
<path d="M3475 3981 c-108 -38 -196 -119 -243 -221 -30 -67 -39 -200 -18 -271
50 -164 185 -272 358 -286 166 -13 325 81 397 237 22 47 25 69 25 155 0 137
-24 196 -113 286 -83 83 -148 110 -271 115 -63 2 -98 -2 -135 -15z"/>
<path d="M7075 3981 c-107 -38 -195 -117 -242 -218 -23 -50 -27 -71 -27 -158
0 -136 22 -193 113 -285 90 -91 148 -114 286 -114 81 0 109 5 148 22 164 74
257 227 244 400 -7 106 -39 174 -116 252 -50 50 -81 73 -126 90 -80 31 -209
36 -280 11z"/>
<path d="M2030 2985 c-302 -68 -516 -264 -611 -560 -34 -108 -37 -311 -6 -425
26 -92 83 -215 125 -270 91 -118 228 -224 352 -273 151 -59 333 -72 485 -36
69 17 240 89 255 108 3 3 23 19 45 35 142 104 259 289 298 471 21 97 15 287
-12 378 -82 277 -285 480 -556 558 -94 27 -286 34 -375 14z"/>
<path d="M8444 2990 c-420 -84 -702 -470 -650 -890 38 -300 242 -554 528 -656
137 -49 347 -55 486 -15 284 82 499 312 562 600 24 107 22 264 -4 366 -72 277
-283 496 -558 576 -80 23 -287 34 -364 19z"/>
<path d="M5192 2379 c-208 -46 -353 -127 -507 -283 -131 -133 -208 -270 -258
-459 -17 -66 -21 -111 -22 -227 0 -200 15 -274 90 -435 89 -193 253 -365 445
-464 231 -119 475 -141 761 -67 55 14 180 75 256 125 204 135 364 366 419 606
20 87 26 322 11 404 -71 378 -364 694 -737 791 -119 31 -340 36 -458 9z"/>
</g>
</svg>
