<svg xmlns="http://www.w3.org/2000/svg" id="Layer_1" data-name="Layer 1" viewBox="0 0 1080 1080"><defs><style>.cls-1{stroke:#112c4a;stroke-miterlimit:10;stroke-width:.25px}.cls-1,.cls-2{fill:#112c4a}.cls-3{fill:#6bdec9}</style></defs><g><path d="m808,540.33c-.04-17.54,3.31-34.57,9.76-50.33h-227.76v100h227.84c-6.3-15.33-9.8-32.1-9.84-49.67Z" class="cls-1"/><path d="m490,817.84c15.33-6.3,32.1-9.8,49.67-9.84h.34c17.68,0,34.56,3.51,50,9.84v-227.84h-100v227.84Z" class="cls-1"/><path d="m261.09,490c6.36,15.56,9.72,32.35,9.77,49.67.05,17.81-3.46,34.8-9.84,50.33h228.99v-100h-228.91Z" class="cls-1"/><path d="m590,261.68c-15.64,6.6-32.8,10.27-50.81,10.32-.11,0-.23,0-.34,0-17,0-33.51-3.2-48.84-9.31v227.31h100v-228.32Z" class="cls-1"/></g><circle cx="540" cy="540" r="180" class="cls-2"/><circle cx="540" cy="540" r="120" class="cls-3"/><circle cx="540" cy="540" r="60" class="cls-2"/><circle cx="220" cy="220" r="80" class="cls-2"/><circle cx="860" cy="220" r="80" class="cls-2"/><circle cx="218.85" cy="860" r="80" class="cls-2"/><circle cx="858.85" cy="860" r="80" class="cls-2"/><circle cx="720" cy="720" r="40" class="cls-2"/><circle cx="360" cy="720" r="40" class="cls-2"/><circle cx="720" cy="360" r="40" class="cls-2"/><circle cx="360" cy="360" r="40" class="cls-2"/><g><circle cx="138.85" cy="540" r="100" class="cls-3"/><circle cx="940" cy="540" r="100" class="cls-3"/><circle cx="540" cy="940" r="100" class="cls-3"/><circle cx="538.85" cy="140" r="100" class="cls-3"/></g></svg>